<?xml version="1.0" encoding="UTF-8" standalone="no"?>
<svg
   xmlns:dc="http://purl.org/dc/elements/1.1/"
   xmlns:cc="http://creativecommons.org/ns#"
   xmlns:rdf="http://www.w3.org/1999/02/22-rdf-syntax-ns#"
   xmlns:svg="http://www.w3.org/2000/svg"
   xmlns="http://www.w3.org/2000/svg"
   xmlns:sodipodi="http://sodipodi.sourceforge.net/DTD/sodipodi-0.dtd"
   xmlns:inkscape="http://www.inkscape.org/namespaces/inkscape"
   width="9.1729279mm"
   height="10.287mm"
   viewBox="0 0 9.1729279 10.287"
   version="1.1"
   id="svg5946"
   inkscape:version="1.0.1 (3bc2e813f5, 2020-09-07)"
   sodipodi:docname="calendar.svg">
  <defs
     id="defs5940">
    <clipPath
       clipPathUnits="userSpaceOnUse"
       id="clipPath4596">
      <path
         d="M 0,3118.855 H 1440 V 0 H 0 Z"
         id="path4594" />
    </clipPath>
  </defs>
  <sodipodi:namedview
     id="base"
     pagecolor="#ffffff"
     bordercolor="#666666"
     borderopacity="1.0"
     inkscape:pageopacity="0.0"
     inkscape:pageshadow="2"
     inkscape:zoom="3.959798"
     inkscape:cx="29.264265"
     inkscape:cy="56.840044"
     inkscape:document-units="mm"
     inkscape:current-layer="layer1"
     inkscape:document-rotation="0"
     showgrid="false"
     fit-margin-top="0"
     fit-margin-left="0"
     fit-margin-right="0"
     fit-margin-bottom="0"
     inkscape:window-width="1431"
     inkscape:window-height="1049"
     inkscape:window-x="0"
     inkscape:window-y="31"
     inkscape:window-maximized="0" />
  <metadata
     id="metadata5943">
    <rdf:RDF>
      <cc:Work
         rdf:about="">
        <dc:format>image/svg+xml</dc:format>
        <dc:type
           rdf:resource="http://purl.org/dc/dcmitype/StillImage" />
        <dc:title></dc:title>
      </cc:Work>
    </rdf:RDF>
  </metadata>
  <g
     inkscape:label="Layer 1"
     inkscape:groupmode="layer"
     id="layer1"
     transform="translate(-76.302192,-27.359775)">
    <g
       id="g4590"
       transform="matrix(0.35277777,0,0,-0.35277777,-319.90238,921.52929)">
      <g
         id="g4592"
         clip-path="url(#clipPath4596)">
        <g
           id="g4598"
           transform="translate(1147.1016,2508.8928)">
          <path
             d="m 0,0 c 0,-0.772 -0.628,-1.4 -1.4,-1.4 h -19.202 c -0.772,0 -1.4,0.628 -1.4,1.4 V 17.602 H 0 Z m -18.28,23.561 c 0,0.551 0.42,1 0.935,1 0.517,0 0.937,-0.449 0.937,-1 v -3.917 c 0,-0.552 -0.42,-1 -0.937,-1 -0.515,0 -0.935,0.448 -0.935,1 z m 6.465,0 c 0,0.551 0.419,1 0.936,1 0.516,0 0.936,-0.449 0.936,-1 v -3.917 c 0,-0.552 -0.42,-1 -0.936,-1 -0.517,0 -0.936,0.448 -0.936,1 z m 6.464,0 c 0,0.551 0.42,1 0.936,1 0.518,0 0.936,-0.449 0.936,-1 v -3.917 c 0,-0.552 -0.418,-1 -0.936,-1 -0.516,0 -0.936,0.448 -0.936,1 z M -1.4,22.602 h -0.878 v 0.959 c 0,1.213 -0.958,2.2 -2.137,2.2 -1.179,0 -2.136,-0.987 -2.136,-2.2 v -0.958 h -2.192 v 0.958 c 0,1.213 -0.957,2.2 -2.136,2.2 -1.179,0 -2.137,-0.987 -2.137,-2.2 v -0.958 h -2.191 v 0.958 c 0,1.213 -0.958,2.2 -2.137,2.2 -1.178,0 -2.135,-0.987 -2.135,-2.2 v -0.958 h -1.123 c -1.874,0 -3.4,-1.526 -3.4,-3.4 V 0.001 c 0,-1.875 1.526,-3.4 3.4,-3.4 H -1.4 c 1.876,0 3.4,1.525 3.4,3.4 v 19.202 c 0,1.873 -1.525,3.399 -3.4,3.399"
             style="fill:#4c4a48;fill-opacity:1;fill-rule:nonzero;stroke:none"
             id="path4600" />
        </g>
        <path
           d="m 1126.9,2522.952 h 3.676 v -3.271 h -3.676 z"
           style="fill:#4c4a48;fill-opacity:1;fill-rule:nonzero;stroke:none"
           id="path4602" />
        <path
           d="m 1131.807,2522.952 h 3.678 v -3.271 h -3.678 z"
           style="fill:#4c4a48;fill-opacity:1;fill-rule:nonzero;stroke:none"
           id="path4604" />
        <path
           d="m 1136.718,2522.952 h 3.676 v -3.271 h -3.676 z"
           style="fill:#4c4a48;fill-opacity:1;fill-rule:nonzero;stroke:none"
           id="path4606" />
        <path
           d="m 1141.624,2522.952 h 3.678 v -3.271 h -3.678 z"
           style="fill:#4c4a48;fill-opacity:1;fill-rule:nonzero;stroke:none"
           id="path4608" />
        <path
           d="m 1126.9,2518.585 h 3.676 v -3.269 h -3.676 z"
           style="fill:#4c4a48;fill-opacity:1;fill-rule:nonzero;stroke:none"
           id="path4610" />
        <path
           d="m 1131.807,2518.585 h 3.678 v -3.269 h -3.678 z"
           style="fill:#4c4a48;fill-opacity:1;fill-rule:nonzero;stroke:none"
           id="path4612" />
        <path
           d="m 1136.718,2518.585 h 3.676 v -3.269 h -3.676 z"
           style="fill:#4c4a48;fill-opacity:1;fill-rule:nonzero;stroke:none"
           id="path4614" />
        <path
           d="m 1141.624,2518.585 h 3.678 v -3.269 h -3.678 z"
           style="fill:#4c4a48;fill-opacity:1;fill-rule:nonzero;stroke:none"
           id="path4616" />
        <path
           d="m 1126.9,2514.22 h 3.676 v -3.269 h -3.676 z"
           style="fill:#4c4a48;fill-opacity:1;fill-rule:nonzero;stroke:none"
           id="path4618" />
        <path
           d="m 1131.807,2514.22 h 3.678 v -3.269 h -3.678 z"
           style="fill:#4c4a48;fill-opacity:1;fill-rule:nonzero;stroke:none"
           id="path4620" />
        <path
           d="m 1136.718,2514.22 h 3.676 v -3.269 h -3.676 z"
           style="fill:#4c4a48;fill-opacity:1;fill-rule:nonzero;stroke:none"
           id="path4622" />
        <path
           d="m 1141.624,2514.22 h 3.678 v -3.269 h -3.678 z"
           style="fill:#4c4a48;fill-opacity:1;fill-rule:nonzero;stroke:none"
           id="path4624" />
      </g>
    </g>
  </g>
</svg>
