<?xml version="1.0" encoding="UTF-8" standalone="no"?>
<svg
   xmlns:dc="http://purl.org/dc/elements/1.1/"
   xmlns:cc="http://creativecommons.org/ns#"
   xmlns:rdf="http://www.w3.org/1999/02/22-rdf-syntax-ns#"
   xmlns:svg="http://www.w3.org/2000/svg"
   xmlns="http://www.w3.org/2000/svg"
   xmlns:sodipodi="http://sodipodi.sourceforge.net/DTD/sodipodi-0.dtd"
   xmlns:inkscape="http://www.inkscape.org/namespaces/inkscape"
   width="10.018418mm"
   height="12.52215mm"
   viewBox="0 0 10.018419 12.52215"
   version="1.1"
   id="svg6635"
   inkscape:version="1.0.1 (3bc2e813f5, 2020-09-07)"
   sodipodi:docname="globe.svg">
  <defs
     id="defs6629" />
  <sodipodi:namedview
     id="base"
     pagecolor="#ffffff"
     bordercolor="#666666"
     borderopacity="1.0"
     inkscape:pageopacity="0.0"
     inkscape:pageshadow="2"
     inkscape:zoom="3.959798"
     inkscape:cx="27.609893"
     inkscape:cy="-15.586381"
     inkscape:document-units="mm"
     inkscape:current-layer="layer1"
     inkscape:document-rotation="0"
     showgrid="false"
     inkscape:window-width="1431"
     inkscape:window-height="1049"
     inkscape:window-x="0"
     inkscape:window-y="31"
     inkscape:window-maximized="0" />
  <metadata
     id="metadata6632">
    <rdf:RDF>
      <cc:Work
         rdf:about="">
        <dc:format>image/svg+xml</dc:format>
        <dc:type
           rdf:resource="http://purl.org/dc/dcmitype/StillImage" />
        <dc:title />
      </cc:Work>
    </rdf:RDF>
  </metadata>
  <g
     inkscape:label="Layer 1"
     inkscape:groupmode="layer"
     id="layer1"
     transform="translate(-181.23727,-150.42539)">
    <path
       d="m 189.91071,158.37748 -0.32421,0.16192 -0.62582,-0.31291 v -1.95792 c 0,-0.0473 -0.0162,-0.0935 -0.0459,-0.13052 l -0.76376,-0.95462 0.17251,-0.51824 c 0.0367,-0.10936 -0.0222,-0.22754 -0.13194,-0.26423 -0.0212,-0.007 -0.0434,-0.0106 -0.066,-0.0106 h -0.2085 v -0.71367 l 0.0166,-0.01 c 2.21969,0.87877 3.39726,3.31048 2.71075,5.59683 l -0.45931,-0.80363 c -0.055,-0.096 -0.17533,-0.13264 -0.27446,-0.0829 m -5.74993,3.65125 c -2.19181,-1.12042 -3.11186,-3.76837 -2.08704,-6.00604 v 1.91523 c 0,0.0554 0.0222,0.10865 0.061,0.14746 l 1.39982,1.39982 v 0.74824 c 0,0.0452 0.0148,0.0893 0.0416,0.12524 l 0.58456,0.77928 z m 6.17714,-6.98183 c -0.58208,-0.8255 -1.40123,-1.45521 -2.34844,-1.80587 -0.002,-7.2e-4 -0.004,-0.001 -0.006,-0.002 -0.55563,-0.20532 -1.14336,-0.31009 -1.73602,-0.30939 -0.0723,0 -0.14535,0.002 -0.21732,0.005 l 0.0176,0.41698 c 0.066,-0.003 0.13335,-0.004 0.19968,-0.004 0.42474,-3.4e-4 0.84702,0.0582 1.25553,0.17392 -0.002,0.0116 -0.003,0.0233 -0.003,0.0349 v 1.04352 c 0,0.11501 0.0935,0.20849 0.20849,0.20849 h 0.12806 l -0.11712,0.35138 c -0.0226,0.067 -0.009,0.14111 0.0349,0.19649 l 0.78917,0.98602 v 2.01401 c 0,0.079 0.0444,0.15098 0.11536,0.18626 l 0.83467,0.41734 c 0.0586,0.0296 0.12771,0.0296 0.18662,0 l 0.24059,-0.1203 0.53482,0.93592 c -0.7299,1.67323 -2.38231,2.75484 -4.20794,2.75449 -0.2092,-3.4e-4 -0.4184,-0.0145 -0.62583,-0.0427 v -0.375 h 0.83467 c 0.11536,0 0.20849,-0.0935 0.20849,-0.20849 v -0.52176 l 0.75142,-0.56374 c 0.0257,-0.019 0.0469,-0.0444 0.0617,-0.0734 l 0.62583,-1.252 c 0.0515,-0.10302 0.01,-0.2286 -0.0935,-0.28011 -0.005,-0.002 -0.0102,-0.005 -0.0159,-0.007 l -1.04317,-0.41733 c -0.0459,-0.0183 -0.0967,-0.0201 -0.14358,-0.004 l -0.41204,0.13758 -0.15417,-0.6163 c -0.0134,-0.0536 -0.0476,-0.0998 -0.0953,-0.12842 l -1.04316,-0.62618 c -0.0822,-0.049 -0.18733,-0.036 -0.25506,0.0318 l -0.49389,0.49389 -0.8195,-0.65546 v -0.52599 h 1.04352 c 0.0554,0 0.1083,-0.0219 0.14746,-0.061 l 1.66969,-1.66934 c 0.0815,-0.0815 0.0815,-0.2138 0,-0.29529 l -0.62618,-0.62582 -0.29527,0.29492 0.47872,0.47872 -1.46085,1.4605 h -1.16594 c -0.115,0 -0.20849,0.0935 -0.20849,0.20885 v 0.83467 c 0,0.0635 0.0289,0.12347 0.0783,0.16298 l 1.04352,0.83468 c 0.0829,0.0663 0.20285,0.06 0.27799,-0.0155 l 0.51082,-0.51047 0.82938,0.49742 0.18768,0.75106 c 0.0282,0.11184 0.14146,0.17992 0.25329,0.1517 0.005,-0.001 0.0102,-0.002 0.0155,-0.004 l 0.55351,-0.18451 0.76165,0.3048 -0.50271,1.00507 -0.79516,0.59654 c -0.0526,0.0392 -0.0836,0.10125 -0.0836,0.16687 v 0.41733 h -0.83467 c -0.11536,0 -0.20849,0.0935 -0.20849,0.20885 v 0.50659 c -0.21308,-0.0494 -0.42228,-0.1143 -0.62618,-0.19368 v -1.14794 c 0,-0.0448 -0.0148,-0.0889 -0.0416,-0.12523 l -0.58456,-0.77894 v -0.76517 c 0,-0.0554 -0.0219,-0.1083 -0.061,-0.14746 l -1.39982,-1.39982 v -2.61903 c 3.5e-4,-0.115 -0.0931,-0.20849 -0.20849,-0.20849 -0.0688,0 -0.13335,0.0339 -0.17216,0.0907 -1.55998,2.28423 -0.97331,5.39997 1.31057,6.95995 0.58808,0.40146 1.25483,0.6731 1.9558,0.79657 0.28752,0.0501 0.57891,0.0755 0.87066,0.0755 2.03165,0 3.86151,-1.22626 4.63409,-3.10515 7.2e-4,-0.002 0.002,-0.004 0.002,-0.006 0.647,-1.58468 0.44133,-3.3902 -0.5461,-4.78861"
       style="fill:#4c4a48;fill-opacity:1;fill-rule:nonzero;stroke:none;stroke-width:0.352777"
       id="path4572" />
    <path
       d="m 183.7433,150.84271 c 0.80645,7e-4 1.46015,0.6544 1.46085,1.46085 0,1.10666 -1.04916,2.64195 -1.46085,3.20217 -0.41169,-0.56022 -1.46085,-2.09551 -1.46085,-3.20217 10e-4,-0.80645 0.6544,-1.46015 1.46085,-1.46085 m 0,5.21723 c 0.0635,0 0.12347,-0.0289 0.16298,-0.0783 0.0702,-0.0878 1.71521,-2.16147 1.71521,-3.67806 0,-1.03752 -0.84102,-1.87819 -1.87819,-1.87819 -1.03717,0 -1.87819,0.84067 -1.87819,1.87819 0,1.51659 1.64536,3.59022 1.71521,3.67806 0.0395,0.0494 0.0995,0.0783 0.16298,0.0783"
       style="fill:#4c4a48;fill-opacity:1;fill-rule:nonzero;stroke:none;stroke-width:0.352777"
       id="path4576" />
    <path
       d="m 183.1173,152.30342 c 0,-0.34572 0.2801,-0.62583 0.62582,-0.62583 0.34608,0 0.62619,0.28011 0.62619,0.62583 0,0.34572 -0.28011,0.62618 -0.62619,0.62618 -0.34536,-7.1e-4 -0.62547,-0.28046 -0.62582,-0.62618 m 1.66934,0 c 0,-0.57609 -0.46708,-1.04352 -1.04352,-1.04352 -0.57608,0 -1.04316,0.46743 -1.04316,1.04352 0,0.57644 0.46708,1.04351 1.04316,1.04351 0.57609,-7.1e-4 1.04282,-0.46743 1.04352,-1.04351"
       style="fill:#4c4a48;fill-opacity:1;fill-rule:nonzero;stroke:none;stroke-width:0.352777"
       id="path4580" />
  </g>
</svg>
